<?xml version="1.0" encoding="UTF-8"?>
<svg xmlns="http://www.w3.org/2000/svg" version="1.1" viewBox="0 0 512 512">
  <defs>
    <style>
      .cls-1 {
        fill: #bcbec0;
      }

      .cls-2 {
        fill: #fff;
      }

      .cls-3 {
        fill: #333;
      }
    </style>
  </defs>
  <!-- Generator: Adobe Illustrator 28.7.1, SVG Export Plug-In . SVG Version: 1.2.0 Build 142)  -->
  <g>
    <g id="Layer_1">
      <rect class="cls-3" x="-.2" y="0" width="512.6" height="512.1" rx="71.9" ry="71.9"/>
      <path class="cls-1" d="M158.8,345.5c35.1,0,59.8-22.5,59.8-64.8,0-74.7-78.3-109.8-122.8-118.3-8.1-1.8-18.4-53.1-18.4-56.7-1.4-29.2,170.1-63.4,237.6-59.4,12.1.9,27.4,38.7,27.4,44.1,0,21.6-44.5,54.4-61.6,54.4s-13-4.5-13-7.6,4.9-14.8,4.9-19.8c0-7.2-68.8,6.8-100.8,23.4,28.4,10.4,143.5,58,143.5,157.9s-59.8,91.3-128.2,91.3-141.3-52.2-141.3-96.8,17.1-58,43.6-58,54,17.5,56.7,27.4c-8.5,9.5-18.9,32-18.9,51.3s11.2,31.5,31.5,31.5Z"/>
      <g>
        <path class="cls-2" d="M235,406.8c-.3-8.7-.3-17.7-.3-27-19.2,1.2-40.5,3.3-59.4,5.7-9.9,23.4-18.6,50.4-25.5,81.3-2.1,8.7-49.8-4.8-51.6-13.8,2.4-18,10.5-42,21.6-67.8-6.3-8.7-10.2-23.7-5.7-26.1,3.3-1.8,11.4-3.9,21.6-6,30.3-56.1,74.1-112.2,116.1-129,15-3.9,38.7,8.4,45,14.4-17.7,79.2-14.1,177.6-8.7,213-.6,11.1-47.1-5.1-51.6-11.7-5.4-7.8-6.3-23.7-5.7-32.1l4.2-.9ZM195.1,344.1c5.7-.6,11.1-.9,15.3-1.2,8.1-.3,20.7-1.8,26.7-.6,2.1-20.7,5.7-42.6,10.8-66.6l-2.1-.3c-15.3,15-33.6,37.5-50.7,68.7Z"/>
        <path class="cls-2" d="M357.9,272.1c-12.9,2.4-27.6,4.8-44.4,7.5-12,1.8-27.6-30.3-19.8-32.4,50.7-13.5,108-18,133.8-19.2,17.1-.9,30-.3,38.7,6.6,1.8,1.5,9.6,15.6,9.6,18s-15.3,9.9-20.7,11.7c-8.7,3-11.1-3.9-18-4.2-8.7.6-17.1,1.5-25.5,2.7-11.4,36.9-25.8,102-32.1,137.7,23.7-4.2,42.3-6.6,57-6,6.3.3,28.8,36.9,15,36.9-40.2.6-86.4,5.7-162,18-11.4,1.8-26.1-24.3-18.3-27.3,10.5-4.2,19.2-12,25.5-9.6,4.2,1.5,5.1,3.6,6.3,3.3,12.6-2.4,24.3-5.1,35.4-7.2-6.6-2.1-11.7-4.8-12-7.8,7.8-44.4,21.3-96.6,31.5-128.7Z"/>
      </g>
    </g>
  </g>
</svg>